<svg width="106" height="106" viewBox="0 0 106 106" fill="none" xmlns="http://www.w3.org/2000/svg">
<path d="M54.5 63L54.5 61.5L51.5 61.5L51.5 63L54.5 63ZM51.9393 93.0607C52.5251 93.6464 53.4749 93.6464 54.0607 93.0607L63.6066 83.5147C64.1924 82.9289 64.1924 81.9792 63.6066 81.3934C63.0208 80.8076 62.0711 80.8076 61.4853 81.3934L53 89.8787L44.5147 81.3934C43.9289 80.8076 42.9792 80.8076 42.3934 81.3934C41.8076 81.9792 41.8076 82.9289 42.3934 83.5147L51.9393 93.0607ZM51.5 63L51.5 92L54.5 92L54.5 63L51.5 63Z" fill="black"/>
</svg>
