<svg width="53" height="53" viewBox="0 0 53 53" fill="none" xmlns="http://www.w3.org/2000/svg">
<path fill-rule="evenodd" clip-rule="evenodd" d="M26.5 53C41.1355 53 53 41.1355 53 26.5C53 11.8645 41.1355 0 26.5 0C11.8645 0 0 11.8645 0 26.5C0 41.1355 11.8645 53 26.5 53ZM28.5661 11.8942C28.0018 12.462 27.7196 13.1575 27.7196 13.9808C27.7196 14.804 28.0018 15.5137 28.5661 16.1099C29.1587 16.6777 29.8642 16.9615 30.6825 16.9615C31.5009 16.9615 32.1922 16.6777 32.7566 16.1099C33.3492 15.5137 33.6455 14.804 33.6455 13.9808C33.6455 13.1575 33.3492 12.462 32.7566 11.8942C32.1922 11.2981 31.5009 11 30.6825 11C29.8642 11 29.1587 11.2981 28.5661 11.8942ZM26.9153 23.2637C27.0564 23.4625 27.0988 23.7038 27.0423 23.9876L23.9101 37.1456C23.7972 37.5998 23.7407 38.054 23.7407 38.5082C23.7407 39.7005 24.0935 40.5806 24.7989 41.1483C25.5044 41.7161 26.3369 42 27.2963 42C28.284 42 29.2293 41.7019 30.1323 41.1058L35 37.7843L33.3069 35.272L28.4392 38.5934C28.2134 38.7353 28.0018 38.8063 27.8042 38.8063C27.5503 38.8063 27.3386 38.707 27.1693 38.5082C27.0282 38.3095 27 38.0398 27.0847 37.6992L30.2169 24.5412C30.3298 24.087 30.3862 23.6328 30.3862 23.1786C30.3862 21.9863 30.0335 21.1062 29.328 20.5385C28.6226 19.9707 27.7901 19.6868 26.8307 19.6868C25.8148 19.6868 24.8695 19.9849 23.9947 20.581L19 23.9876L20.6931 26.5L25.6455 23.0934C25.843 22.9799 26.0547 22.9231 26.2804 22.9231C26.5908 22.9231 26.8025 23.0366 26.9153 23.2637Z" fill="black"/>
</svg>
